# xmcd
#
# Track frame offsets: 
#        150
#        7762
#        21050
#        32337
#        44557
#        56877
#        68477
#        82445
#        91747
#        103787
#        116917
#        128280
#        139180
#        152435
#        163917
#        179930
#        191150
#        202047
#        213350
#        231755
#
# Disc length: 3262 seconds
#
# Revision: 3
# Processed by: cddbd v1.5.2PL0 Copyright (c) Steve Scherf et al.
# Submitted via: ExactAudioCopyFreeDBPlugin 1.0
#
DISCID=180cbc14
DTITLE=Glen Campbell - The Collection (1962-1989) [Disc 1]
DYEAR=1997
DGENRE=Country
TTITLE0=Kentucky Means Paradise [The Green River Boys]
TTITLE1=Gentle On My Mind
TTITLE2=Burning Bridges
TTITLE3=By The Time I Get To Phoenix
TTITLE4=I Wanna Live
TTITLE5=Dreams Of The Everday Housewife
TTITLE6=Wichita Lineman
TTITLE7=Let It Be Me (with Bobby Gentry)
TTITLE8=Galveston
TTITLE9=Where's The Playground Susie
TTITLE10=True Grit
TTITLE11=Try A Little Kindness
TTITLE12=Honey, Come Back
TTITLE13=All I Have To Do Is Dream (with Bobby Gentry)
TTITLE14=Oh Happy Day
TTITLE15=Everything A Man Could Ever Need
TTITLE16=It's Only Make Believe
TTITLE17=Dream Baby (How Long Must I Dream)
TTITLE18=The Last Time I Saw Her
TTITLE19=The William Tell Overture (Live Instrumental with the Royal P
TTITLE19=hilharmonic Orch.)
EXTD=YEAR: 1997
EXTT0=
EXTT1=
EXTT2=
EXTT3=
EXTT4=
EXTT5=
EXTT6=
EXTT7=With Bobbie Gentry
EXTT8=
EXTT9=
EXTT10=
EXTT11=
EXTT12=
EXTT13=With Bobbie Gentry
EXTT14=
EXTT15=
EXTT16=
EXTT17=
EXTT18=
EXTT19=
PLAYORDER=
